<svg xmlns="http://www.w3.org/2000/svg" viewBox="0 0 137.71 135.81" fill="white">
  <path d="M83.7 20.45s.17.02.5.09c.31.06.5.08 1.13.25.61.17 1.12.24 2 .53.88.3 1.65.5 2.77.93 1.12.44 2.1.82 3.43 1.41 1.32.6 2.28 1.04 3.73 1.88 1.44.83 2.6 1.48 4.12 2.57a51.44 51.44 0 0112.6 12.56c1.35 1.93 2.45 3.6 3.56 5.8s2.1 4.15 2.92 6.6a76.7 76.7 0 012.06 7.33c.6 2.59.8 5.02 1.01 7.71.21 2.7.06 5.24-.13 7.97-.2 2.73-.73 5.33-1.34 8a55.08 55.08 0 01-10.8 21.85 56.72 56.72 0 01-11.59 10.8 55.94 55.94 0 01-6.49 3.96 77.85 77.85 0 01-6.51 2.9c-2.07.8-4.57 1.58-6.58 2.04-2 .46-4.29.93-6.15 1.17a63.16 63.16 0 01-10.58.5 48.47 48.47 0 01-4.41-.37 76.14 76.14 0 01-7.88-1.36.45.45 0 00.1.15.84.84 0 00.15.15 1.7 1.7 0 00.14.09l.07.04.08.05c.03 0 .06.02.08.04l.09.04.08.04.1.04.08.05c.03 0 .06.02.09.04l.09.04.08.04.09.04.08.04.08.05.08.04.07.04.07.05a1.47 1.47 0 01.22.19.52.52 0 01.06.1.34.34 0 01.03.1c0 .02.14.07.42.16.28.08 1 .25 1.55.37s1.53.34 2.33.47c.81.13 2.03.35 3.08.45 1.04.11 2.5.26 3.76.32a59.2 59.2 0 0015.22-1.12c1.76-.36 4.07-.95 5.93-1.52a73.07 73.07 0 006.08-2.26c1.9-.8 4.4-2.07 6.26-3.18s4.06-2.56 5.87-3.9c1.81-1.34 4.02-3.22 5.67-4.84s3.47-3.66 4.98-5.47 3.14-4.25 4.38-6.3a54.65 54.65 0 003.53-6.8 77.22 77.22 0 002.55-7.04c.7-2.3 1.32-5.02 1.65-7.35.34-2.34.58-4.91.68-7.23.1-2.31 0-4.91-.23-7.15-.24-2.24-.62-4.6-1.05-6.72a47.18 47.18 0 00-1.76-6.32 66.11 66.11 0 00-2.3-5.68 56.33 56.33 0 00-11.3-16.12c-.89-.9-1.74-1.73-2.54-2.41-.8-.68-1.5-1.31-2.15-1.81l-1.64-1.27-1.03-.77a1.8 1.8 0 01-.35-.28l.4.22c.25.15.62.4 1.08.72l1.7 1.23c.66.49 1.44 1.1 2.22 1.82.8.7 1.7 1.5 2.6 2.4a51.3 51.3 0 015.86 6.77A56.96 56.96 0 01122.2 46a45.58 45.58 0 012.36 5.86 69.81 69.81 0 011.73 6.37c.45 2.14.8 4.58 1.04 6.84.25 2.25.27 4.96.17 7.3-.1 2.33-.4 4.97-.73 7.33a54.21 54.21 0 01-1.77 7.48c-.7 2.3-1.7 5.1-2.75 7.3s-2.36 4.66-3.61 6.73c-1.25 2.06-3.04 4.5-4.57 6.34s-3.55 4.08-5.29 5.64-3.87 3.34-5.7 4.7-4.32 2.95-6.24 3.99a78.46 78.46 0 01-6.24 3c-1.92.8-4.35 1.62-6.22 2.2-1.87.59-4.28 1.09-6.06 1.46-1.78.37-4.11.6-5.76.78a60.18 60.18 0 01-10.11.06c-1.27-.12-2.78-.27-3.83-.42a75.9 75.9 0 01-7.24-1.41c-.01.01.17.08.54.19.36.11 1.25.4 1.98.56.72.17 1.97.5 3.03.68a58.63 58.63 0 009.35 1.07c1.7.04 4.2.09 6.15-.08 1.94-.16 4.68-.43 6.83-.83 2.15-.4 5.02-1.1 7.33-1.76a66.48 66.48 0 007.87-3.02 69.79 69.79 0 007.81-4.33 72.34 72.34 0 007.43-5.7c2.2-1.88 5.03-4.9 6.88-7.27s4.07-5.6 5.6-8.3 3.37-6.55 4.34-9.55c.98-3 2.08-6.86 2.6-10 .51-3.16.84-7.14.88-10.35.04-3.2-.37-7.39-.96-10.53a75.72 75.72 0 00-2.64-9.86c-1.02-2.99-2.78-6.61-4.32-9.3s-3.65-5.7-5.5-8.07-4.49-5.08-6.67-6.98-4.89-4-7.22-5.48a61.75 61.75 0 00-7.53-4.13 81.97 81.97 0 00-7.36-2.8A52.87 52.87 0 0080.57 10a69.75 69.75 0 00-6.52-.76 62.23 62.23 0 00-10.74.32c-1.4.18-2.78.4-3.85.59-1.08.19-2.13.43-2.86.6-.74.15-1.44.34-1.81.43-.38.1-.58.13-.58.11a28.02 28.02 0 012.35-.75c.72-.19 1.78-.47 2.85-.68a53.6 53.6 0 018.83-1.13c1.69-.08 3.89-.1 5.84 0 1.95.12 4.4.38 6.57.72 2.16.35 5.03.96 7.32 1.7 2.29.73 5.05 1.73 7.42 2.77a62.73 62.73 0 017.64 4.14 67.06 67.06 0 017.3 5.51c2.2 1.89 4.93 4.69 6.78 7.05s4.05 5.46 5.59 8.13a76.53 76.53 0 014.3 9.16 61.18 61.18 0 013.79 20.87c-.04 3.2-.35 7.3-.87 10.44s-1.61 7.12-2.58 10.12c-.97 3-2.85 7.02-4.37 9.7s-3.77 6.05-5.62 8.42-4.61 5.2-6.7 7.19-5.42 4.54-7.74 6.02-5.52 3.36-7.88 4.43-5.34 2.23-7.6 3.01a63.74 63.74 0 01-26.26 2.66c-1.39-.15-3.02-.4-4.08-.56-1.07-.16-2.37-.46-3.1-.6-.72-.14-1.67-.39-2.04-.47a2.1 2.1 0 00-.54-.1c.03.04.26.14.7.3.45.15 1.52.46 2.37.69a58.18 58.18 0 008.68 1.6c1.6.14 4.25.37 6.18.35 1.93-.02 4.89-.12 7.1-.36 2.21-.25 5.84-.79 8.25-1.43a99.5 99.5 0 008.29-2.62 64.04 64.04 0 009.17-4.48c2.51-1.53 6.06-3.99 8.47-5.98s5.95-5.45 8.02-7.99a85.95 85.95 0 006.48-9.3 70.53 70.53 0 004.99-11.05 71.43 71.43 0 002.88-12.03c.46-3.54.75-8.88.5-12.49a74.47 74.47 0 00-1.96-12.38 75.28 75.28 0 00-4.33-11.72 74.77 74.77 0 00-6.45-10.59c-2.15-2.85-5.65-6.7-8.26-9.03s-6.7-5.44-9.63-7.17A84.08 84.08 0 0092.75 8.4a65.56 65.56 0 00-10.82-3.1 78.22 78.22 0 00-10.25-1.14c-2.93-.08-6.98.13-9.67.46-2.7.32-6.42 1.1-8.82 1.74C50.8 7 47.46 8.13 45.44 9c-2.03.88-4.59 2.1-6.26 3.03a63.5 63.5 0 00-9.15 6.12c-.95.79-2.05 1.7-2.67 2.28l-1.43 1.31c-.32.3-.75.74-.75.74l3.13-2.9 3-2.45 3.15-2.26 3.61-2.27 3.42-1.84 3.52-1.63 3.61-1.43 4.08-1.3 3.78-.94 3.82-.73 4.27-.5 3.9-.22 3.9.03 4.33.3 3.88.54 3.84.77 3.8 1 3.72 1.23 4.04 1.64 3.54 1.7 3.42 1.91 3.66 2.36 3.14 2.35 3 2.53 2.83 2.7 2.94 3.2 2.46 3.05 2.27 3.19 2.28 3.69 1.84 3.45 1.64 3.56 1.56 4.07 1.16 3.75.94 3.81.71 3.87.5 4.35.19 3.94-.04 3.94-.34 4.4-.56 3.92-.8 3.88-1.02 3.82-1.43 4.2-1.52 3.66-1.74 3.57-1.94 3.45-2.43 3.7-2.39 3.17-2.56 3.01-3.08 3.18-2.94 2.64-3.09 2.47-3.22 2.29-3.77 2.3-3.5 1.84-3.6 1.64-4.14 1.56-3.8 1.15-3.85.93-4.38.76-3.96.42-3.98.18-3.98-.05-4.47-.38s11.28 1.53 15.36 1.07a88.61 88.61 0 0010.73-2.11 70.28 70.28 0 0012.55-5c3.4-1.86 8.6-5.24 11.92-7.98 3.3-2.73 8.2-7.99 10.97-11.73 2.76-3.75 6.9-11.16 8.69-16.35 1.8-5.18 3.75-14.12 3.94-20.12.18-6-.94-15.88-2.85-21.8-1.9-5.9-6.2-14.82-9.87-19.7-3.68-4.89-10.72-12.02-15.83-15.38-5.1-3.37-13.34-7.33-18.44-8.8A82.3 82.3 0 0072.1 2.02c-3.87-.1-8.44.24-8.76.28-.33.04-2.35.24-4.57.58a87.7 87.7 0 00-9.71 2.29c-3.11.94-8.34 3.19-11.78 4.98a76.11 76.11 0 00-11.98 8.27 89.65 89.65 0 00-9.99 10.73c-2.61 3.36-6.06 9.64-7.77 13.54a77.18 77.18 0 00-4.47 14.8c-.67 4-1.17 10.3-1.07 13.98.1 3.67.85 9.64 1.6 13.02a82.16 82.16 0 003.8 11.87c1.28 2.93 3.56 7.3 5.06 9.73s4.26 6.11 5.81 7.97 4.04 4.39 5.41 5.75c5.69 3.98 4.3 2.32 9.52 4.32 7.59 2.98 17.61-.25 19.33-3.59 1.72-3.33-.5-12.35-9.66-21.46-1.38-1.27-1.98-1.75-3.57-3.53s-2-2.18-3.57-4.53a38.9 38.9 0 01-3.47-6.11c-1.4-2.9-1.57-3.55-2.49-6.98-.92-3.42-1.02-4.34-1.29-8.15-.27-3.8-.36-4.47.4-8.8.75-4.35.76-5.53 2.7-9.87s2.47-5.75 5.48-9.6 4.16-5 7.9-7.94c3.72-2.95 4.7-3.64 9.05-5.41s5.74-2.41 9.73-3.02 5.4-.86 8.3-.74c2.91.12 3.98.17 4.22.2.23.03 1.07.03 3.25.4 2.17.37 3.5.47 6.76 1.55 3.25 1.07 5.04 1.66 8.78 3.8s5.64 3.46 9.1 6.77 5.21 5.28 7.8 9.79c2.59 4.5 4.04 7.43 5.28 12.67 1.25 5.25 1.82 8.83 1.48 14.18a52.77 52.77 0 01-2.67 14.15 42.75 42.75 0 01-6.2 12.35 53.48 53.48 0 01-9.08 10.1 51.33 51.33 0 01-10.56 7.05 13.8 13.8 0 002.4-.75c.57-.23 1.17-.47 1.86-.82.7-.35 1.42-.7 2.22-1.17.8-.48 1.64-.95 2.53-1.56.89-.61 1.79-1.23 2.75-1.97s1.89-1.53 2.9-2.4c1.02-.87 1.9-1.79 2.9-2.83.99-1.05 1.91-2.05 2.85-3.28a87.99 87.99 0 002.76-3.79c.93-1.34 1.65-2.67 2.47-4.17a47.5 47.5 0 002.14-4.55c.69-1.63 1.2-3.14 1.74-4.89a50.4 50.4 0 002.25-15.9 51.89 51.89 0 00-.37-5.44c-.21-1.9-.54-3.47-.94-5.35-.39-1.87-.9-3.36-1.47-5.17a32.07 32.07 0 00-1.9-4.73c-.81-1.69-1.44-3-2.39-4.57a48.55 48.55 0 00-2.73-4.18c-1.06-1.42-1.84-2.47-3-3.74s-1.94-2.19-3.15-3.3-2.23-1.98-3.43-2.97c-1.2-.99-2.03-1.53-3.23-2.34s-1.92-1.3-3.1-1.94a60.76 60.76 0 00-6.07-2.94c-1-.43-1.7-.65-2.57-.98-.89-.33-1.44-.48-2.19-.72s-1.14-.34-1.73-.5"/>
</svg>